<?xml version="1.0" encoding="utf-8"?>
<!-- Generator: Adobe Illustrator 17.1.0, SVG Export Plug-In . SVG Version: 6.00 Build 0)  -->
<!DOCTYPE svg PUBLIC "-//W3C//DTD SVG 1.1//EN" "http://www.w3.org/Graphics/SVG/1.1/DTD/svg11.dtd">
<svg version="1.1" id="Layer_1" xmlns="http://www.w3.org/2000/svg" xmlns:xlink="http://www.w3.org/1999/xlink" x="0px" y="0px"
	 viewBox="-214.4 -91.1 1024 1024" enable-background="new -214.4 -91.1 1024 1024" xml:space="preserve">
<g>
	<path fill="#f0c202" d="M447.9,283.9c2.8,1.9,5.7,3.9,8.5,5.8c8.2,6.6,16.3,13.3,24.5,19.9c3,2.7,6,5.5,9,8.2
		c6.5,7,13.1,14.1,19.6,21.1c2.1,4.7,5,8.9,9.1,12.1c5,7.5,10,15.1,15,22.6c1,3.5,2.5,6.6,5.5,8.8c4.1,8.7,8.1,17.4,12.2,26.2
		c0.7,5.3,2.4,10.2,5.6,14.6c3,10.7,6,21.4,9,32c-0.2,4.2,0.1,8.2,2.7,11.7c1.1,13.6,2.2,27.2,3.3,40.8c0,4.3-2.2,6.3-6.4,6.5
		c-14.5,0.1-29.1,0.1-43.6,0.2c-4.9-0.1-9.8-0.1-14.7-0.2c-14.5,0.1-29.1,0.1-43.6,0.2c-4.9-0.1-9.8-0.1-14.7-0.2
		c-14.5,0.1-29.1,0.1-43.6,0.2c-4.9-0.1-9.8-0.1-14.7-0.2c-14.5,0.1-29.1,0.1-43.6,0.2c-4.9-0.1-9.8-0.1-14.7-0.2
		c-11.5-0.2-23.1-0.5-34.6-0.7c-0.3-4.8-0.6-9.7-0.9-14.5c0-14.5,0.1-29.1,0.1-43.6c0-4.9-0.1-9.8-0.1-14.6
		c0-14.5,0.1-29.1,0.1-43.6c0-4.9-0.1-9.8-0.1-14.6c0-14.5,0.1-29.1,0.1-43.6c0-4.9-0.1-9.8-0.1-14.6c0-14.5,0.1-29.1,0.1-43.6
		c0-4.9-0.1-9.8-0.1-14.6c0.1-1,0.4-1.9,0.4-2.9c0.8-22.8,0.8-22.8,23.5-23.3c4.6,2.4,9.6,2.5,14.6,2.3c11.6,2.2,23.3,4.3,34.9,6.5
		c4.9,1.7,9.8,3.5,14.6,5.2c8.5,3.2,17,6.4,25.5,9.6c3.5,3.2,7.6,5,12.2,5.9C431,274.1,439.4,279,447.9,283.9z"/>
	<path fill="#f0c202" d="M594.2,216.9c-22.1-22.1-46.3-41.5-72.1-57.9l23.8-46.7l27.2,13.9c5.5,2.8,12.3,0.6,15.1-4.9l29.7-58.2
		c2.8-5.5,0.6-12.3-4.9-15.1L483.8-17.8c-5.5-2.8-12.3-0.6-15.1,4.9l-29.7,58.2c-2.8,5.5-0.6,12.3,4.9,15.1l27.2,13.9l-24,47.1
		c-34.6-13.2-71-21.7-108.4-25.3V32.1h28.6c6.2,0,11.2-5,11.2-11.2V-79.9c0-6.2-5-11.2-11.2-11.2h-145c-6.2,0-11.2,5-11.2,11.2V20.9
		c0,6.2,5,11.2,11.2,11.2h34.4V96c-38.6,3.7-76.1,12.7-111.7,26.6l-23.5-46.8l27.3-13.7c5.5-2.8,7.8-9.5,5-15l-29.3-58.4
		c-2.8-5.5-9.5-7.8-15-5L-20.2,48.9c-5.5,2.8-7.8,9.5-5,15l29.3,58.4c2.8,5.5,9.5,7.8,15,5l27.3-13.7l23.8,47.4
		c-24.7,16-47.9,34.7-69.2,56c-79.2,79.2-122.9,184.6-122.9,296.6S-78.2,730.9,1,810.1c79.2,79.2,184.6,122.9,296.6,122.9
		S515,889.3,594.2,810.1s122.9-184.6,122.9-296.6S673.5,296.1,594.2,216.9z M297.6,832.2c-175.7,0-318.7-143-318.7-318.7
		s143-318.7,318.7-318.7s318.7,143,318.7,318.7S473.4,832.2,297.6,832.2z"/>
</g>
</svg>
